<svg width="20" height="19" viewBox="0 0 20 19" fill="none" xmlns="http://www.w3.org/2000/svg">
<path fill-rule="evenodd" clip-rule="evenodd" d="M9.98513 0C4.83567 0 0.692871 4.11672 0.692871 9.23377C0.692871 13.312 3.3644 16.7747 7.04258 18.0058C7.5072 18.0828 7.66207 17.8135 7.66207 17.5442C7.66207 17.3133 7.66207 16.7362 7.66207 15.9667C5.06798 16.5438 4.52593 14.7356 4.52593 14.7356C4.10003 13.6583 3.48055 13.389 3.48055 13.389C2.62876 12.8119 3.55799 12.8119 3.55799 12.8119C4.48721 12.8888 4.99054 13.7737 4.99054 13.7737C5.80362 15.1972 7.15874 14.774 7.70079 14.5432C7.77822 13.9276 8.01053 13.5429 8.28155 13.312C6.22951 13.0812 4.06132 12.2732 4.06132 8.7336C4.06132 7.73328 4.40978 6.88685 5.02926 6.27127C4.95182 6.04042 4.60336 5.11704 5.1067 3.80893C5.1067 3.80893 5.88105 3.57808 7.66207 4.77078C8.39771 4.57841 9.21078 4.46299 9.98513 4.46299C10.7595 4.46299 11.5726 4.57841 12.3082 4.77078C14.0892 3.57808 14.8636 3.80893 14.8636 3.80893C15.3669 5.07857 15.0572 6.00195 14.941 6.27127C15.5218 6.92532 15.9089 7.73328 15.9089 8.7336C15.9089 12.2732 13.7408 13.0427 11.65 13.2735C11.9985 13.5429 12.2695 14.12 12.2695 14.9664C12.2695 16.1976 12.2695 17.1979 12.2695 17.5057C12.2695 17.7365 12.4244 18.0443 12.9277 17.9674C16.6059 16.7747 19.2774 13.312 19.2774 9.23377C19.2774 4.11672 15.1346 0 9.98513 0Z" fill="white"/>
</svg>
